<svg width="30" height="30" viewBox="0 0 30 30" fill="none" xmlns="http://www.w3.org/2000/svg">
<path d="M11.0977 2.54053L9.9082 3.13701C9.9082 5.01377 9.95508 8.28506 10.7227 10.8104C14.1387 11.6425 15.8613 11.6425 19.2773 10.8104C20.0566 8.29092 20.0918 5.73975 20.0977 3.13701L18.9023 2.54053C18.6445 2.87686 18.2168 3.42178 17.625 4.09736C17.2031 4.57549 16.7578 5.05596 16.3301 5.4333C16.1191 5.62197 15.9141 5.78486 15.709 5.91201C15.498 6.04092 15.293 6.15225 15 6.15225C14.707 6.15225 14.502 6.04092 14.291 5.91201C14.0859 5.78486 13.8809 5.62197 13.6699 5.4333C13.2422 5.05596 12.7969 4.57549 12.375 4.09736C11.7832 3.42178 11.3555 2.87686 11.0977 2.54053ZM10.5938 11.8593L3.35742 26.3378C3.37383 26.4022 3.4043 26.4726 3.48398 26.5605C3.60117 26.6952 3.81094 26.8593 4.10566 27.0116C4.69629 27.328 5.6127 27.6151 6.72656 27.8437C8.95313 28.3007 11.9824 28.5351 15 28.5351C18.0176 28.5351 21.0469 28.3007 23.2734 27.8437C24.3867 27.6151 25.3066 27.328 25.8926 27.0116C26.1914 26.8593 26.3965 26.6952 26.5137 26.5605C26.5957 26.4726 26.625 26.4022 26.6426 26.3378L19.4063 11.8593C16.0078 12.6737 13.9922 12.6737 10.5938 11.8593Z" fill="#E9D0BE"/>
</svg>
