<svg width="30" height="30" viewBox="0 0 30 30" fill="none" xmlns="http://www.w3.org/2000/svg">
<path d="M11.325 2.4124C8.9625 2.3999 6.6625 4.67491 7.7125 7.4999H3.75C3.08696 7.4999 2.45107 7.7633 1.98223 8.23214C1.51339 8.70098 1.25 9.33686 1.25 9.9999V12.4999C1.25 12.8314 1.3817 13.1494 1.61612 13.3838C1.85054 13.6182 2.16848 13.7499 2.5 13.7499H13.75V9.9999H16.25V13.7499H27.5C27.8315 13.7499 28.1495 13.6182 28.3839 13.3838C28.6183 13.1494 28.75 12.8314 28.75 12.4999V9.9999C28.75 9.33686 28.4866 8.70098 28.0178 8.23214C27.5489 7.7633 26.913 7.4999 26.25 7.4999H22.2875C23.75 3.41241 18.25 0.524905 15.7125 4.0499L15 4.9999L14.2875 4.0249C13.5 2.9124 12.4125 2.4249 11.325 2.4124ZM11.25 4.9999C12.3625 4.9999 12.925 6.34991 12.1375 7.13741C11.35 7.92491 10 7.3624 10 6.2499C10 5.91838 10.1317 5.60044 10.3661 5.36602C10.6005 5.1316 10.9185 4.9999 11.25 4.9999ZM18.75 4.9999C19.8625 4.9999 20.425 6.34991 19.6375 7.13741C18.85 7.92491 17.5 7.3624 17.5 6.2499C17.5 5.91838 17.6317 5.60044 17.8661 5.36602C18.1005 5.1316 18.4185 4.9999 18.75 4.9999ZM2.5 14.9999V24.9999C2.5 25.6629 2.76339 26.2988 3.23223 26.7677C3.70107 27.2365 4.33696 27.4999 5 27.4999H25C25.663 27.4999 26.2989 27.2365 26.7678 26.7677C27.2366 26.2988 27.5 25.6629 27.5 24.9999V14.9999H16.25V24.9999H13.75V14.9999H2.5Z" fill="#E9D0BE"/>
</svg>
