<svg width="31" height="30" viewBox="0 0 31 30" fill="none" xmlns="http://www.w3.org/2000/svg">
<path d="M21.75 15C21.75 17.125 20.125 18.75 18 18.75C15.875 18.75 14.25 17.125 14.25 15C14.25 12.875 15.875 11.25 18 11.25C20.125 11.25 21.75 12.875 21.75 15ZM28 8.75V22.5C28 23.875 26.875 25 25.5 25H5.5C4.125 25 3 23.875 3 22.5V8.75C3 7.375 4.125 6.25 5.5 6.25V5H10.5V6.25H13L14.25 3.75H21.75L23 6.25H25.5C26.875 6.25 28 7.375 28 8.75ZM9.875 11.25C9.875 10.25 9 9.375 8 9.375C7 9.375 6.125 10.25 6.125 11.25C6.125 12.25 7 13.125 8 13.125C9 13.125 9.875 12.25 9.875 11.25ZM24.25 15C24.25 11.5 21.5 8.75 18 8.75C14.5 8.75 11.75 11.5 11.75 15C11.75 18.5 14.5 21.25 18 21.25C21.5 21.25 24.25 18.5 24.25 15Z" fill="#E9D0BE"/>
</svg>
