<svg width="37" height="36" viewBox="0 0 37 36" fill="none" xmlns="http://www.w3.org/2000/svg">
<g clip-path="url(#clip0_84_28)">
<g filter="url(#filter0_d_84_28)">
<path d="M26.25 18C26.25 20.55 24.3 22.5 21.75 22.5C19.2 22.5 17.25 20.55 17.25 18C17.25 15.45 19.2 13.5 21.75 13.5C24.3 13.5 26.25 15.45 26.25 18ZM33.75 10.5V27C33.75 28.65 32.4 30 30.75 30H6.75C5.1 30 3.75 28.65 3.75 27V10.5C3.75 8.85 5.1 7.5 6.75 7.5V6H12.75V7.5H15.75L17.25 4.5H26.25L27.75 7.5H30.75C32.4 7.5 33.75 8.85 33.75 10.5ZM12 13.5C12 12.3 10.95 11.25 9.75 11.25C8.55 11.25 7.5 12.3 7.5 13.5C7.5 14.7 8.55 15.75 9.75 15.75C10.95 15.75 12 14.7 12 13.5ZM29.25 18C29.25 13.8 25.95 10.5 21.75 10.5C17.55 10.5 14.25 13.8 14.25 18C14.25 22.2 17.55 25.5 21.75 25.5C25.95 25.5 29.25 22.2 29.25 18Z" fill="#8FB585"/>
</g>
</g>
<defs>
<filter id="filter0_d_84_28" x="3.45" y="4.2" width="32.6" height="28.1" filterUnits="userSpaceOnUse" color-interpolation-filters="sRGB">
<feFlood flood-opacity="0" result="BackgroundImageFix"/>
<feColorMatrix in="SourceAlpha" type="matrix" values="0 0 0 0 0 0 0 0 0 0 0 0 0 0 0 0 0 0 127 0" result="hardAlpha"/>
<feOffset dx="1" dy="1"/>
<feGaussianBlur stdDeviation="0.65"/>
<feComposite in2="hardAlpha" operator="out"/>
<feColorMatrix type="matrix" values="0 0 0 0 0.290196 0 0 0 0 0.494118 0 0 0 0 0.239216 0 0 0 0.4 0"/>
<feBlend mode="normal" in2="BackgroundImageFix" result="effect1_dropShadow_84_28"/>
<feBlend mode="normal" in="SourceGraphic" in2="effect1_dropShadow_84_28" result="shape"/>
</filter>
<clipPath id="clip0_84_28">
<rect width="36" height="36" fill="white" transform="translate(0.75)"/>
</clipPath>
</defs>
</svg>
