<svg width="31" height="30" viewBox="0 0 31 30" fill="none" xmlns="http://www.w3.org/2000/svg">
<path d="M16.0758 5.93447C15.9885 5.85102 15.8725 5.80444 15.7518 5.80444C15.631 5.80444 15.515 5.85102 15.4277 5.93447L4.64062 16.2393C4.59481 16.2832 4.55837 16.3358 4.53349 16.3941C4.50862 16.4525 4.49583 16.5152 4.4959 16.5786L4.49414 26.2501C4.49414 26.7474 4.69168 27.2243 5.04332 27.5759C5.39495 27.9275 5.87186 28.1251 6.36914 28.1251H12C12.2486 28.1251 12.4871 28.0263 12.6629 27.8505C12.8387 27.6747 12.9375 27.4362 12.9375 27.1876V19.2188C12.9375 19.0945 12.9869 18.9753 13.0748 18.8874C13.1627 18.7995 13.2819 18.7501 13.4063 18.7501H18.0938C18.2181 18.7501 18.3373 18.7995 18.4252 18.8874C18.5131 18.9753 18.5625 19.0945 18.5625 19.2188V27.1876C18.5625 27.4362 18.6613 27.6747 18.8371 27.8505C19.0129 28.0263 19.2514 28.1251 19.5 28.1251H25.1285C25.6258 28.1251 26.1027 27.9275 26.4543 27.5759C26.806 27.2243 27.0035 26.7474 27.0035 26.2501V16.5786C27.0036 16.5152 26.9908 16.4525 26.9659 16.3941C26.941 16.3358 26.9046 16.2832 26.8588 16.2393L16.0758 5.93447Z" fill="#E9D0BE"/>
<path d="M29.5143 14.3057L25.1314 10.1127V3.75C25.1314 3.50136 25.0327 3.2629 24.8569 3.08709C24.681 2.91127 24.4426 2.8125 24.1939 2.8125H21.3814C21.1328 2.8125 20.8943 2.91127 20.7185 3.08709C20.5427 3.2629 20.4439 3.50136 20.4439 3.75V5.625L17.0502 2.38008C16.7326 2.05898 16.2604 1.875 15.75 1.875C15.2414 1.875 14.7703 2.05898 14.4527 2.38066L1.98984 14.3045C1.62539 14.6561 1.57969 15.2344 1.91133 15.6152C1.99461 15.7114 2.09658 15.7896 2.21103 15.845C2.32549 15.9005 2.45004 15.9321 2.57709 15.9379C2.70415 15.9437 2.83106 15.9236 2.9501 15.8788C3.06914 15.834 3.17782 15.7655 3.26953 15.6773L15.4277 4.05937C15.515 3.97593 15.631 3.92935 15.7518 3.92935C15.8725 3.92935 15.9885 3.97593 16.0758 4.05937L28.2352 15.6773C28.4143 15.8491 28.6542 15.9429 28.9023 15.938C29.1504 15.9332 29.3865 15.8302 29.5588 15.6516C29.9186 15.2789 29.8887 14.6637 29.5143 14.3057Z" fill="#E9D0BE"/>
</svg>
