<svg width="30" height="30" viewBox="0 0 30 30" fill="none" xmlns="http://www.w3.org/2000/svg">
<path d="M16.9375 22.5C17.4625 23.85 18.2375 25.15 18.9875 26.25H6.25C5.58696 26.25 4.95107 25.9866 4.48223 25.5178C4.01339 25.0489 3.75 24.413 3.75 23.75V6.25C3.75 4.875 4.875 3.75 6.25 3.75H23.75C24.413 3.75 25.0489 4.01339 25.5178 4.48223C25.9866 4.95107 26.25 5.58696 26.25 6.25V13.2875C25.3125 12.7875 24.2375 12.5 23.125 12.5C20.3625 12.5 17.9125 14.2375 16.8375 16.6625L13.75 20.625L10.625 16.875L6.25 22.5H16.9375ZM27.5 19.375C27.5 22.625 23.125 27.5 23.125 27.5C23.125 27.5 18.75 22.625 18.75 19.375C18.75 17 20.75 15 23.125 15C25.5 15 27.5 17 27.5 19.375ZM24.625 19.5C24.625 18.75 23.875 18 23.125 18C22.375 18 21.625 18.625 21.625 19.5C21.625 20.25 22.25 21 23.125 21C24 21 24.75 20.25 24.625 19.5Z" fill="#E9D0BE"/>
</svg>
