<svg width="36" height="36" viewBox="0 0 36 36" fill="none" xmlns="http://www.w3.org/2000/svg">
<g filter="url(#filter0_d_100_42)">
<path d="M20.325 27C20.955 28.62 21.885 30.18 22.785 31.5H7.5C6.70435 31.5 5.94129 31.1839 5.37868 30.6213C4.81607 30.0587 4.5 29.2956 4.5 28.5V7.5C4.5 5.85 5.85 4.5 7.5 4.5H28.5C29.2956 4.5 30.0587 4.81607 30.6213 5.37868C31.1839 5.94129 31.5 6.70435 31.5 7.5V15.945C30.375 15.345 29.085 15 27.75 15C24.435 15 21.495 17.085 20.205 19.995L16.5 24.75L12.75 20.25L7.5 27H20.325ZM33 23.25C33 27.15 27.75 33 27.75 33C27.75 33 22.5 27.15 22.5 23.25C22.5 20.4 24.9 18 27.75 18C30.6 18 33 20.4 33 23.25ZM29.55 23.4C29.55 22.5 28.65 21.6 27.75 21.6C26.85 21.6 25.95 22.35 25.95 23.4C25.95 24.3 26.7 25.2 27.75 25.2C28.8 25.2 29.7 24.3 29.55 23.4Z" fill="#8FB585"/>
</g>
<defs>
<filter id="filter0_d_100_42" x="4.2" y="4.2" width="31.1" height="31.1" filterUnits="userSpaceOnUse" color-interpolation-filters="sRGB">
<feFlood flood-opacity="0" result="BackgroundImageFix"/>
<feColorMatrix in="SourceAlpha" type="matrix" values="0 0 0 0 0 0 0 0 0 0 0 0 0 0 0 0 0 0 127 0" result="hardAlpha"/>
<feOffset dx="1" dy="1"/>
<feGaussianBlur stdDeviation="0.65"/>
<feComposite in2="hardAlpha" operator="out"/>
<feColorMatrix type="matrix" values="0 0 0 0 0.290196 0 0 0 0 0.494118 0 0 0 0 0.239216 0 0 0 0.4 0"/>
<feBlend mode="normal" in2="BackgroundImageFix" result="effect1_dropShadow_100_42"/>
<feBlend mode="normal" in="SourceGraphic" in2="effect1_dropShadow_100_42" result="shape"/>
</filter>
</defs>
</svg>
