<svg width="37" height="36" viewBox="0 0 37 36" fill="none" xmlns="http://www.w3.org/2000/svg">
<g clip-path="url(#clip0_84_30)">
<g filter="url(#filter0_d_84_30)">
<path d="M13.84 2.89508C11.005 2.88008 8.245 5.61008 9.505 9.00008H4.75C3.95435 9.00008 3.19129 9.31615 2.62868 9.87876C2.06607 10.4414 1.75 11.2044 1.75 12.0001V15.0001C1.75 15.3979 1.90804 15.7794 2.18934 16.0607C2.47064 16.342 2.85218 16.5001 3.25 16.5001H16.75V12.0001H19.75V16.5001H33.25C33.6478 16.5001 34.0294 16.342 34.3107 16.0607C34.592 15.7794 34.75 15.3979 34.75 15.0001V12.0001C34.75 11.2044 34.4339 10.4414 33.8713 9.87876C33.3087 9.31615 32.5456 9.00008 31.75 9.00008H26.995C28.75 4.09508 22.15 0.630081 19.105 4.86008L18.25 6.00008L17.395 4.83008C16.45 3.49508 15.145 2.91008 13.84 2.89508ZM13.75 6.00008C15.085 6.00008 15.76 7.62008 14.815 8.56508C13.87 9.51008 12.25 8.83508 12.25 7.50008C12.25 7.10226 12.408 6.72073 12.6893 6.43942C12.9706 6.15812 13.3522 6.00008 13.75 6.00008ZM22.75 6.00008C24.085 6.00008 24.76 7.62008 23.815 8.56508C22.87 9.51008 21.25 8.83508 21.25 7.50008C21.25 7.10226 21.408 6.72073 21.6893 6.43942C21.9706 6.15812 22.3522 6.00008 22.75 6.00008ZM3.25 18.0001V30.0001C3.25 30.7957 3.56607 31.5588 4.12868 32.1214C4.69129 32.684 5.45435 33.0001 6.25 33.0001H30.25C31.0456 33.0001 31.8087 32.684 32.3713 32.1214C32.9339 31.5588 33.25 30.7957 33.25 30.0001V18.0001H19.75V30.0001H16.75V18.0001H3.25Z" fill="#8FB585"/>
</g>
</g>
<defs>
<filter id="filter0_d_84_30" x="1.45" y="2.59502" width="35.6" height="32.705" filterUnits="userSpaceOnUse" color-interpolation-filters="sRGB">
<feFlood flood-opacity="0" result="BackgroundImageFix"/>
<feColorMatrix in="SourceAlpha" type="matrix" values="0 0 0 0 0 0 0 0 0 0 0 0 0 0 0 0 0 0 127 0" result="hardAlpha"/>
<feOffset dx="1" dy="1"/>
<feGaussianBlur stdDeviation="0.65"/>
<feComposite in2="hardAlpha" operator="out"/>
<feColorMatrix type="matrix" values="0 0 0 0 0.290196 0 0 0 0 0.494118 0 0 0 0 0.239216 0 0 0 0.4 0"/>
<feBlend mode="normal" in2="BackgroundImageFix" result="effect1_dropShadow_84_30"/>
<feBlend mode="normal" in="SourceGraphic" in2="effect1_dropShadow_84_30" result="shape"/>
</filter>
<clipPath id="clip0_84_30">
<rect width="36" height="36" fill="white" transform="translate(0.25)"/>
</clipPath>
</defs>
</svg>
